<mxfile host="app.diagrams.net" modified="2023-02-11T16:28:26.300Z" agent="5.0 (Macintosh; Intel Mac OS X 10_15_7) AppleWebKit/537.36 (KHTML, like Gecko) Chrome/107.0.0.0 Safari/537.36" etag="lIceZ9Rq2HZsww3mV5gi" version="20.8.19" type="github">
  <diagram name="第 1 页" id="AKdYKOF7EX8eT6-lXkkh">
    <mxGraphModel dx="1710" dy="1138" grid="1" gridSize="10" guides="1" tooltips="1" connect="1" arrows="1" fold="1" page="1" pageScale="1" pageWidth="827" pageHeight="1169" math="0" shadow="0">
      <root>
        <mxCell id="0" />
        <mxCell id="1" parent="0" />
        <mxCell id="7V-nYg6PrMZz39m-7i_o-25" value="" style="rounded=0;whiteSpace=wrap;html=1;fontSize=18;dashed=1;strokeWidth=2;fillColor=none;" vertex="1" parent="1">
          <mxGeometry x="6" y="120" width="730" height="400" as="geometry" />
        </mxCell>
        <mxCell id="7V-nYg6PrMZz39m-7i_o-1" value="&lt;font style=&quot;font-size: 18px;&quot;&gt;接口错误&lt;/font&gt;" style="rounded=1;whiteSpace=wrap;html=1;" vertex="1" parent="1">
          <mxGeometry x="30" y="190" width="120" height="60" as="geometry" />
        </mxCell>
        <mxCell id="7V-nYg6PrMZz39m-7i_o-6" value="&lt;font style=&quot;font-size: 18px;&quot;&gt;接口竞争失败&lt;/font&gt;" style="rounded=1;whiteSpace=wrap;html=1;" vertex="1" parent="1">
          <mxGeometry x="171" y="191" width="120" height="60" as="geometry" />
        </mxCell>
        <mxCell id="7V-nYg6PrMZz39m-7i_o-7" value="&lt;font style=&quot;font-size: 18px;&quot;&gt;Redis、DB&lt;br&gt;执行错误超时&lt;/font&gt;" style="rounded=1;whiteSpace=wrap;html=1;" vertex="1" parent="1">
          <mxGeometry x="311" y="191" width="120" height="60" as="geometry" />
        </mxCell>
        <mxCell id="7V-nYg6PrMZz39m-7i_o-8" value="&lt;font style=&quot;font-size: 18px;&quot;&gt;IDIP错误&lt;/font&gt;" style="rounded=1;whiteSpace=wrap;html=1;" vertex="1" parent="1">
          <mxGeometry x="451" y="191" width="120" height="60" as="geometry" />
        </mxCell>
        <mxCell id="7V-nYg6PrMZz39m-7i_o-9" value="&lt;font style=&quot;font-size: 18px;&quot;&gt;道聚城错误&lt;/font&gt;" style="rounded=1;whiteSpace=wrap;html=1;" vertex="1" parent="1">
          <mxGeometry x="591" y="191" width="120" height="60" as="geometry" />
        </mxCell>
        <mxCell id="7V-nYg6PrMZz39m-7i_o-10" value="&lt;font style=&quot;font-size: 18px;&quot;&gt;魔镜监控&lt;/font&gt;" style="rounded=1;whiteSpace=wrap;html=1;fillColor=#f5f5f5;fontColor=#333333;strokeColor=#666666;" vertex="1" parent="1">
          <mxGeometry x="150" y="380" width="190" height="60" as="geometry" />
        </mxCell>
        <mxCell id="7V-nYg6PrMZz39m-7i_o-11" value="&lt;font style=&quot;font-size: 18px;&quot;&gt;tnm2打点&lt;/font&gt;" style="rounded=1;whiteSpace=wrap;html=1;fillColor=#f5f5f5;fontColor=#333333;strokeColor=#666666;" vertex="1" parent="1">
          <mxGeometry x="400" y="380" width="190" height="60" as="geometry" />
        </mxCell>
        <mxCell id="7V-nYg6PrMZz39m-7i_o-12" value="流量监控及错误报警" style="text;html=1;align=center;verticalAlign=middle;resizable=0;points=[];autosize=1;strokeColor=none;fillColor=none;fontSize=18;" vertex="1" parent="1">
          <mxGeometry x="150" y="450" width="190" height="40" as="geometry" />
        </mxCell>
        <mxCell id="7V-nYg6PrMZz39m-7i_o-17" value="" style="shape=flexArrow;endArrow=classic;html=1;rounded=0;fontSize=18;" edge="1" parent="1">
          <mxGeometry width="50" height="50" relative="1" as="geometry">
            <mxPoint x="160" y="280" as="sourcePoint" />
            <mxPoint x="160" y="340" as="targetPoint" />
          </mxGeometry>
        </mxCell>
        <mxCell id="7V-nYg6PrMZz39m-7i_o-18" value="" style="shape=flexArrow;endArrow=classic;html=1;rounded=0;fontSize=18;" edge="1" parent="1">
          <mxGeometry width="50" height="50" relative="1" as="geometry">
            <mxPoint x="370.5" y="280" as="sourcePoint" />
            <mxPoint x="370.5" y="340" as="targetPoint" />
          </mxGeometry>
        </mxCell>
        <mxCell id="7V-nYg6PrMZz39m-7i_o-19" value="" style="shape=flexArrow;endArrow=classic;html=1;rounded=0;fontSize=18;" edge="1" parent="1">
          <mxGeometry width="50" height="50" relative="1" as="geometry">
            <mxPoint x="440" y="280" as="sourcePoint" />
            <mxPoint x="440" y="340" as="targetPoint" />
          </mxGeometry>
        </mxCell>
        <mxCell id="7V-nYg6PrMZz39m-7i_o-20" value="" style="shape=flexArrow;endArrow=classic;html=1;rounded=0;fontSize=18;" edge="1" parent="1">
          <mxGeometry width="50" height="50" relative="1" as="geometry">
            <mxPoint x="510.5" y="280" as="sourcePoint" />
            <mxPoint x="510.5" y="340" as="targetPoint" />
          </mxGeometry>
        </mxCell>
        <mxCell id="7V-nYg6PrMZz39m-7i_o-21" value="" style="shape=flexArrow;endArrow=classic;html=1;rounded=0;fontSize=18;" edge="1" parent="1">
          <mxGeometry width="50" height="50" relative="1" as="geometry">
            <mxPoint x="580" y="280" as="sourcePoint" />
            <mxPoint x="580" y="340" as="targetPoint" />
          </mxGeometry>
        </mxCell>
        <mxCell id="7V-nYg6PrMZz39m-7i_o-23" value="" style="shape=flexArrow;endArrow=classic;html=1;rounded=0;fontSize=18;" edge="1" parent="1">
          <mxGeometry width="50" height="50" relative="1" as="geometry">
            <mxPoint x="230.5" y="280" as="sourcePoint" />
            <mxPoint x="230.5" y="340" as="targetPoint" />
          </mxGeometry>
        </mxCell>
        <mxCell id="7V-nYg6PrMZz39m-7i_o-24" value="" style="shape=flexArrow;endArrow=classic;html=1;rounded=0;fontSize=18;" edge="1" parent="1">
          <mxGeometry width="50" height="50" relative="1" as="geometry">
            <mxPoint x="300" y="280" as="sourcePoint" />
            <mxPoint x="300" y="340" as="targetPoint" />
          </mxGeometry>
        </mxCell>
        <mxCell id="7V-nYg6PrMZz39m-7i_o-26" value="" style="rounded=0;whiteSpace=wrap;html=1;fontSize=18;dashed=1;strokeWidth=2;fillColor=none;" vertex="1" parent="1">
          <mxGeometry x="770" y="120" width="730" height="400" as="geometry" />
        </mxCell>
        <mxCell id="7V-nYg6PrMZz39m-7i_o-27" value="&lt;font style=&quot;font-size: 24px;&quot;&gt;逻辑监控&lt;/font&gt;" style="text;html=1;align=center;verticalAlign=middle;resizable=0;points=[];autosize=1;strokeColor=none;fillColor=none;fontSize=18;" vertex="1" parent="1">
          <mxGeometry x="320" y="140" width="120" height="40" as="geometry" />
        </mxCell>
        <mxCell id="7V-nYg6PrMZz39m-7i_o-28" value="&lt;font style=&quot;font-size: 24px;&quot;&gt;系统监控&lt;/font&gt;" style="text;html=1;align=center;verticalAlign=middle;resizable=0;points=[];autosize=1;strokeColor=none;fillColor=none;fontSize=18;" vertex="1" parent="1">
          <mxGeometry x="1075" y="140" width="120" height="40" as="geometry" />
        </mxCell>
        <mxCell id="7V-nYg6PrMZz39m-7i_o-29" value="&lt;font style=&quot;font-size: 18px;&quot;&gt;礼包监控&lt;/font&gt;" style="rounded=1;whiteSpace=wrap;html=1;" vertex="1" parent="1">
          <mxGeometry x="870" y="191" width="120" height="60" as="geometry" />
        </mxCell>
        <mxCell id="7V-nYg6PrMZz39m-7i_o-30" value="&lt;font style=&quot;font-size: 18px;&quot;&gt;Lua报错&lt;/font&gt;" style="rounded=1;whiteSpace=wrap;html=1;" vertex="1" parent="1">
          <mxGeometry x="1080" y="190" width="120" height="60" as="geometry" />
        </mxCell>
        <mxCell id="7V-nYg6PrMZz39m-7i_o-31" value="&lt;font style=&quot;font-size: 18px;&quot;&gt;入口流量监控&lt;/font&gt;" style="rounded=1;whiteSpace=wrap;html=1;" vertex="1" parent="1">
          <mxGeometry x="1290" y="190" width="120" height="60" as="geometry" />
        </mxCell>
        <mxCell id="7V-nYg6PrMZz39m-7i_o-33" value="&lt;font style=&quot;font-size: 18px;&quot;&gt;个人&amp;amp;总限量&lt;/font&gt;" style="rounded=1;whiteSpace=wrap;html=1;" vertex="1" parent="1">
          <mxGeometry x="870" y="380" width="120" height="60" as="geometry" />
        </mxCell>
        <mxCell id="7V-nYg6PrMZz39m-7i_o-34" value="&lt;font style=&quot;font-size: 18px;&quot;&gt;蓝鲸日志&lt;/font&gt;" style="rounded=1;whiteSpace=wrap;html=1;" vertex="1" parent="1">
          <mxGeometry x="1080" y="380" width="120" height="60" as="geometry" />
        </mxCell>
        <mxCell id="7V-nYg6PrMZz39m-7i_o-35" value="&lt;font style=&quot;font-size: 18px;&quot;&gt;骤增骤降&lt;/font&gt;" style="rounded=1;whiteSpace=wrap;html=1;" vertex="1" parent="1">
          <mxGeometry x="1290" y="380" width="120" height="60" as="geometry" />
        </mxCell>
        <mxCell id="7V-nYg6PrMZz39m-7i_o-36" value="" style="shape=flexArrow;endArrow=classic;html=1;rounded=0;fontSize=18;" edge="1" parent="1">
          <mxGeometry width="50" height="50" relative="1" as="geometry">
            <mxPoint x="929.5" y="280" as="sourcePoint" />
            <mxPoint x="929.5" y="340" as="targetPoint" />
          </mxGeometry>
        </mxCell>
        <mxCell id="7V-nYg6PrMZz39m-7i_o-38" value="" style="shape=flexArrow;endArrow=classic;html=1;rounded=0;fontSize=18;" edge="1" parent="1">
          <mxGeometry width="50" height="50" relative="1" as="geometry">
            <mxPoint x="1139.5" y="280" as="sourcePoint" />
            <mxPoint x="1139.5" y="340" as="targetPoint" />
          </mxGeometry>
        </mxCell>
        <mxCell id="7V-nYg6PrMZz39m-7i_o-39" value="" style="shape=flexArrow;endArrow=classic;html=1;rounded=0;fontSize=18;" edge="1" parent="1">
          <mxGeometry width="50" height="50" relative="1" as="geometry">
            <mxPoint x="1349.5" y="280" as="sourcePoint" />
            <mxPoint x="1349.5" y="340" as="targetPoint" />
          </mxGeometry>
        </mxCell>
        <mxCell id="7V-nYg6PrMZz39m-7i_o-40" value="&lt;font style=&quot;font-size: 24px;&quot;&gt;Redis集群&lt;/font&gt;" style="rounded=0;whiteSpace=wrap;html=1;strokeWidth=2;fontSize=24;fillColor=#f5f5f5;strokeColor=#666666;fontColor=#333333;" vertex="1" parent="1">
          <mxGeometry x="175.5" y="591" width="300" height="100" as="geometry" />
        </mxCell>
        <mxCell id="7V-nYg6PrMZz39m-7i_o-41" value="" style="verticalLabelPosition=bottom;sketch=0;aspect=fixed;html=1;verticalAlign=top;strokeColor=none;align=center;outlineConnect=0;shape=mxgraph.citrix.chassis;strokeWidth=2;fontSize=24;fillColor=default;" vertex="1" parent="1">
          <mxGeometry x="145" y="571" width="71" height="91.66" as="geometry" />
        </mxCell>
        <mxCell id="7V-nYg6PrMZz39m-7i_o-42" value="&lt;font style=&quot;font-size: 24px;&quot;&gt;DB主从备份&lt;/font&gt;" style="rounded=0;whiteSpace=wrap;html=1;strokeWidth=2;fontSize=24;fillColor=#f5f5f5;strokeColor=#666666;fontColor=#333333;" vertex="1" parent="1">
          <mxGeometry x="601.5" y="590" width="300" height="100" as="geometry" />
        </mxCell>
        <mxCell id="7V-nYg6PrMZz39m-7i_o-43" value="" style="verticalLabelPosition=bottom;sketch=0;aspect=fixed;html=1;verticalAlign=top;strokeColor=none;align=center;outlineConnect=0;shape=mxgraph.citrix.chassis;strokeWidth=2;fontSize=24;fillColor=default;" vertex="1" parent="1">
          <mxGeometry x="571" y="570" width="71" height="91.66" as="geometry" />
        </mxCell>
        <mxCell id="7V-nYg6PrMZz39m-7i_o-44" value="&lt;font style=&quot;font-size: 24px;&quot;&gt;&amp;nbsp;PAAS后台：&lt;br&gt;新加坡多中心&lt;/font&gt;" style="rounded=0;whiteSpace=wrap;html=1;strokeWidth=2;fontSize=24;fillColor=#f5f5f5;strokeColor=#666666;fontColor=#333333;" vertex="1" parent="1">
          <mxGeometry x="1040.5" y="590" width="300" height="100" as="geometry" />
        </mxCell>
        <mxCell id="7V-nYg6PrMZz39m-7i_o-45" value="" style="verticalLabelPosition=bottom;sketch=0;aspect=fixed;html=1;verticalAlign=top;strokeColor=none;align=center;outlineConnect=0;shape=mxgraph.citrix.chassis;strokeWidth=2;fontSize=24;fillColor=default;" vertex="1" parent="1">
          <mxGeometry x="1010" y="570" width="71" height="91.66" as="geometry" />
        </mxCell>
      </root>
    </mxGraphModel>
  </diagram>
</mxfile>
